<svg width="42" height="42" viewBox="0 0 42 42" fill="none" xmlns="http://www.w3.org/2000/svg">
<rect width="42" height="42" rx="21" fill="white"/>
<path d="M18.5 15.1797V16.8203H24.0078L14.3203 26.5078L15.4922 27.6797L25.1797 17.9922V23.5H26.8203V15.1797H18.5Z" fill="#E82929"/>
<path d="M18.5 15.1797V14.6797H18V15.1797H18.5ZM18.5 16.8203H18V17.3203H18.5V16.8203ZM24.0078 16.8203L24.3614 17.1739L25.2149 16.3203H24.0078V16.8203ZM14.3203 26.5078L13.9668 26.1543L13.6132 26.5078L13.9668 26.8614L14.3203 26.5078ZM15.4922 27.6797L15.1386 28.0332L15.4922 28.3868L15.8457 28.0332L15.4922 27.6797ZM25.1797 17.9922H25.6797V16.7851L24.8261 17.6386L25.1797 17.9922ZM25.1797 23.5H24.6797V24H25.1797V23.5ZM26.8203 23.5V24H27.3203V23.5H26.8203ZM26.8203 15.1797H27.3203V14.6797H26.8203V15.1797ZM18 15.1797V16.8203H19V15.1797H18ZM18.5 17.3203H24.0078V16.3203H18.5V17.3203ZM23.6543 16.4668L13.9668 26.1543L14.6739 26.8614L24.3614 17.1739L23.6543 16.4668ZM13.9668 26.8614L15.1386 28.0332L15.8457 27.3261L14.6739 26.1543L13.9668 26.8614ZM15.8457 28.0332L25.5332 18.3457L24.8261 17.6386L15.1386 27.3261L15.8457 28.0332ZM24.6797 17.9922V23.5H25.6797V17.9922H24.6797ZM25.1797 24H26.8203V23H25.1797V24ZM27.3203 23.5V15.1797H26.3203V23.5H27.3203ZM26.8203 14.6797H18.5V15.6797H26.8203V14.6797Z" fill="#E82929"/>
</svg>
