<svg width="212" height="40" viewBox="0 0 212 40" fill="none" xmlns="http://www.w3.org/2000/svg">
<path d="M2.73845 32V9.55105H12.0365C14.4353 9.55105 16.2821 10.1136 17.577 11.2387C18.8932 12.3638 19.5513 13.9347 19.5513 15.9514C19.5513 17.2888 19.2541 18.4245 18.6597 19.3585C18.0653 20.2926 17.2268 21.0037 16.1441 21.492C15.0827 21.9802 13.8409 22.2244 12.4186 22.2244L12.9599 21.7786H13.7241C14.5945 21.7786 15.3693 22.0015 16.0486 22.4473C16.7279 22.8718 17.2905 23.5724 17.7363 24.5489L20.9205 32H17.6407L14.552 24.6125C14.1911 23.6997 13.6604 23.1053 12.9599 22.8294C12.2806 22.5534 11.4208 22.4154 10.3806 22.4154H5.6998V32H2.73845ZM5.6998 20.1228H11.5907C13.2252 20.1228 14.4671 19.7725 15.3162 19.072C16.1866 18.3714 16.6218 17.3525 16.6218 16.0151C16.6218 14.6989 16.1866 13.7012 15.3162 13.0219C14.4671 12.3214 13.2252 11.9711 11.5907 11.9711H5.6998V20.1228ZM24.8789 32V9.55105H39.3991V11.9711H27.7447V19.3904H38.6667V21.8104H27.7447V29.58H39.3991V32H24.8789ZM53.4707 32.2866C51.2205 32.2866 49.2887 31.8196 47.6754 30.8855C46.0833 29.9515 44.8626 28.6247 44.0135 26.9052C43.1644 25.1645 42.7398 23.1159 42.7398 20.7596C42.7398 18.4033 43.1644 16.3653 44.0135 14.6459C44.8626 12.9264 46.0833 11.5996 47.6754 10.6655C49.2887 9.7315 51.2205 9.26447 53.4707 9.26447C55.0841 9.26447 56.517 9.5086 57.7695 9.99685C59.0219 10.4639 60.1152 11.1538 61.0492 12.0666L59.9666 14.4548C58.9476 13.5632 57.9393 12.9264 56.9416 12.5442C55.9651 12.1409 54.8293 11.9392 53.5344 11.9392C51.0507 11.9392 49.1508 12.7035 47.8346 14.2319C46.5185 15.7603 45.8604 17.9362 45.8604 20.7596C45.8604 22.6277 46.147 24.2304 46.7201 25.5678C47.3145 26.884 48.1849 27.8923 49.3312 28.5929C50.4775 29.2722 51.8786 29.6118 53.5344 29.6118C54.8293 29.6118 55.9651 29.4208 56.9416 29.0386C57.9393 28.6353 58.9476 27.9878 59.9666 27.0963L61.0492 29.4526C60.1152 30.3654 59.0113 31.066 57.7376 31.5542C56.4851 32.0425 55.0629 32.2866 53.4707 32.2866ZM93.5017 32V12.9264H86.0824V9.55105H105.029V12.9264H97.6094V32H93.5017ZM102.959 32L113.117 9.55105H116.556L126.841 32H122.67L119.931 25.6952L121.587 26.8097H108.118L109.837 25.6952L107.099 32H102.959ZM114.805 13.9453L110.315 24.5807L109.487 23.5936H120.186L119.517 24.5807L114.932 13.9453H114.805ZM129.325 32V9.55105H132.414L145.437 26.3957H144.609V9.55105H148.43V32H145.342L132.35 15.1553H133.146V32H129.325ZM164.189 32.3184C161.663 32.3184 159.54 31.8514 157.82 30.9174C156.101 29.9833 154.806 28.6565 153.935 26.937C153.065 25.2176 152.63 23.1796 152.63 20.8233C152.63 18.4457 153.097 16.3972 154.031 14.6777C154.965 12.937 156.302 11.5996 158.043 10.6655C159.805 9.71027 161.917 9.23263 164.38 9.23263C166.014 9.23263 167.447 9.45553 168.679 9.90132C169.91 10.3259 170.992 10.9521 171.926 11.78L170.557 14.9643C169.878 14.4336 169.23 14.009 168.615 13.6906C167.999 13.3722 167.362 13.1493 166.704 13.0219C166.046 12.8733 165.282 12.799 164.412 12.799C161.949 12.799 160.081 13.4995 158.807 14.9006C157.555 16.2804 156.929 18.2653 156.929 20.8551C156.929 23.445 157.523 25.4192 158.712 26.7778C159.922 28.1364 161.811 28.8158 164.38 28.8158C165.25 28.8158 166.121 28.7308 166.991 28.561C167.882 28.3912 168.753 28.1471 169.602 27.8286L168.838 29.5481V22.8294H163.584V19.8362H172.245V30.6308C171.544 30.9704 170.748 31.2676 169.857 31.5224C168.986 31.7771 168.063 31.9682 167.086 32.0955C166.131 32.2441 165.165 32.3184 164.189 32.3184ZM176.933 32V9.55105H181.041V28.5292H191.613V32H176.933ZM194.751 32V9.55105H209.876V12.7671H198.7V18.9764H209.144V22.2244H198.7V28.7521H209.876V32H194.751Z" fill="#0A090D"/>
<path d="M64.4745 32V9.55105H71.3525V19.0083H71.4162L79.345 9.55105H87.3056L76.8931 21.4283V18.8172L87.8469 32H79.6316L71.4162 22.0015H71.3525V32H64.4745Z" fill="#E82929"/>
</svg>
